<?xml version="1.0" encoding="UTF-8"?>
<svg width="96px" height="96px" viewBox="0 0 96 96" version="1.1" xmlns="http://www.w3.org/2000/svg" xmlns:xlink="http://www.w3.org/1999/xlink">
    <!-- Generator: Sketch 62 (91390) - https://sketch.com -->
    <title>Shape</title>
    <desc>Created with Sketch.</desc>
    <g id="Page-1" stroke="none" stroke-width="1" fill="none" fill-rule="evenodd">
        <g id="circular-arrow" fill="#FFFFFF" fill-rule="nonzero">
            <path d="M95.5,48 C95.5,21.8 74.2,0.5 48,0.5 C21.8,0.5 0.5,21.8 0.5,48 C0.5,74.2 21.8,95.5 48,95.5 C74.2,95.5 95.5,74.2 95.5,48 Z M38.4,68.7 C37.7,68 37.4,67.2 37.4,66.3 C37.4,65.4 37.7,64.5 38.4,63.9 L54.2,48 L38.4,32.2 C37.1,30.9 37.1,28.7 38.4,27.4 C39.7,26.1 41.9,26.1 43.2,27.4 L61.5,45.7 C62.8,47 62.8,49.2 61.5,50.5 L43.2,68.7 C41.9,70 39.7,70 38.4,68.7 Z" id="Shape"></path>
        </g>
    </g>
</svg>